<?xml version="1.0" encoding="UTF-8" standalone="no"?>
<!-- Created with Inkscape (http://www.inkscape.org/) -->

<svg
   width="300"
   height="300"
   viewBox="0 0 300 300"
   version="1.1"
   id="svg5"
   inkscape:version="1.2 (dc2aedaf03, 2022-05-15)"
   sodipodi:docname="enemy1.svg"
   xmlns:inkscape="http://www.inkscape.org/namespaces/inkscape"
   xmlns:sodipodi="http://sodipodi.sourceforge.net/DTD/sodipodi-0.dtd"
   xmlns="http://www.w3.org/2000/svg"
   xmlns:svg="http://www.w3.org/2000/svg">
  <sodipodi:namedview
     id="namedview7"
     pagecolor="#333333"
     bordercolor="#ffffff"
     borderopacity="1"
     inkscape:showpageshadow="2"
     inkscape:pageopacity="0"
     inkscape:pagecheckerboard="true"
     inkscape:deskcolor="#000000"
     inkscape:document-units="px"
     showgrid="true"
     inkscape:zoom="1"
     inkscape:cx="-93"
     inkscape:cy="177"
     inkscape:window-width="1920"
     inkscape:window-height="1005"
     inkscape:window-x="0"
     inkscape:window-y="0"
     inkscape:window-maximized="1"
     inkscape:current-layer="layer1">
    <inkscape:grid
       type="xygrid"
       id="grid132"
       spacingx="5"
       spacingy="5"
       empspacing="10"
       empcolor="#00e5e5"
       empopacity="0.54901961"
       color="#0099e5"
       opacity="0.2"
       originx="0"
       originy="0" />
  </sodipodi:namedview>
  <defs
     id="defs2" />
  <g
     inkscape:label="Layer 1"
     inkscape:groupmode="layer"
     id="layer1">
    <path
       sodipodi:type="star"
       style="fill:#e52d4c;fill-opacity:1;stroke:none;stroke-width:8;stroke-linecap:round;stroke-linejoin:round;stroke-miterlimit:16;stop-color:#000000"
       id="path4815"
       inkscape:flatsided="false"
       sodipodi:sides="7"
       sodipodi:cx="150"
       sodipodi:cy="150"
       sodipodi:r1="150"
       sodipodi:r2="129.90381"
       sodipodi:arg1="1.5707963"
       sodipodi:arg2="2.0195953"
       inkscape:rounded="0.1"
       inkscape:randomized="0"
       d="M 150,300 C 143.47067,300 99.51957,269.87226 93.636847,267.03929 87.754126,264.20632 36.796249,248.62831 32.72528,243.52347 28.65431,238.41864 24.806063,185.27194 23.35315,178.90631 21.900238,172.54069 2.3079,122.98749 3.7608123,116.62186 5.2137249,110.25624 44.366144,74.111133 48.437115,69.006298 52.508084,63.901463 79.034714,17.687641 84.917436,14.854672 90.800158,12.021702 143.47067,20.096192 150,20.096191 c 6.52933,0 59.19984,-8.074492 65.08256,-5.241523 5.88272,2.83297 32.40936,49.046799 36.48033,54.151634 4.07097,5.104835 43.22338,41.249928 44.6763,47.615558 1.45291,6.36562 -18.13943,55.91883 -19.59234,62.28446 -1.45291,6.36562 -5.30116,59.51231 -9.37213,64.61715 -4.07097,5.10483 -55.02885,20.68285 -60.91157,23.51582 C 200.48043,269.87226 156.52933,300 150,300 Z"
       transform="rotate(-90,150,150)" />
    <path
       sodipodi:type="star"
       style="fill:#b2233b;fill-opacity:1;stroke:none;stroke-width:12;stroke-linecap:round;stroke-linejoin:round;stroke-miterlimit:16;stop-color:#000000"
       id="path4817"
       inkscape:flatsided="false"
       sodipodi:sides="7"
       sodipodi:cx="150"
       sodipodi:cy="150"
       sodipodi:r1="150"
       sodipodi:r2="129.90381"
       sodipodi:arg1="1.5707963"
       sodipodi:arg2="2.0195953"
       inkscape:rounded="0.1"
       inkscape:randomized="0"
       d="M 150,300 C 143.47067,300 99.51957,269.87226 93.636847,267.03929 87.754126,264.20632 36.796249,248.62831 32.72528,243.52347 28.65431,238.41864 24.806063,185.27194 23.35315,178.90631 21.900238,172.54069 2.3079,122.98749 3.7608123,116.62186 5.2137249,110.25624 44.366144,74.111133 48.437115,69.006298 52.508084,63.901463 79.034714,17.687641 84.917436,14.854672 90.800158,12.021702 143.47067,20.096192 150,20.096191 c 6.52933,0 59.19984,-8.074492 65.08256,-5.241523 5.88272,2.83297 32.40936,49.046799 36.48033,54.151634 4.07097,5.104835 43.22338,41.249928 44.6763,47.615558 1.45291,6.36562 -18.13943,55.91883 -19.59234,62.28446 -1.45291,6.36562 -5.30116,59.51231 -9.37213,64.61715 -4.07097,5.10483 -55.02885,20.68285 -60.91157,23.51582 C 200.48043,269.87226 156.52933,300 150,300 Z"
       transform="matrix(0,-0.66666667,0.66666667,0,49.999995,250)" />
  </g>
</svg>
