<?xml version="1.0" encoding="UTF-8" standalone="no"?>
<!-- Created with Inkscape (http://www.inkscape.org/) -->

<svg
   width="300"
   height="300"
   viewBox="0 0 300 300"
   version="1.1"
   id="svg5"
   inkscape:version="1.2 (dc2aedaf03, 2022-05-15)"
   sodipodi:docname="enemy2.svg"
   xmlns:inkscape="http://www.inkscape.org/namespaces/inkscape"
   xmlns:sodipodi="http://sodipodi.sourceforge.net/DTD/sodipodi-0.dtd"
   xmlns="http://www.w3.org/2000/svg"
   xmlns:svg="http://www.w3.org/2000/svg">
  <sodipodi:namedview
     id="namedview7"
     pagecolor="#333333"
     bordercolor="#ffffff"
     borderopacity="1"
     inkscape:showpageshadow="2"
     inkscape:pageopacity="0"
     inkscape:pagecheckerboard="true"
     inkscape:deskcolor="#000000"
     inkscape:document-units="px"
     showgrid="true"
     inkscape:zoom="1"
     inkscape:cx="-93"
     inkscape:cy="177"
     inkscape:window-width="1920"
     inkscape:window-height="1005"
     inkscape:window-x="0"
     inkscape:window-y="0"
     inkscape:window-maximized="1"
     inkscape:current-layer="layer1">
    <inkscape:grid
       type="xygrid"
       id="grid132"
       spacingx="5"
       spacingy="5"
       empspacing="10"
       empcolor="#00e5e5"
       empopacity="0.54901961"
       color="#0099e5"
       opacity="0.2"
       originx="0"
       originy="0" />
  </sodipodi:namedview>
  <defs
     id="defs2" />
  <g
     inkscape:label="Layer 1"
     inkscape:groupmode="layer"
     id="layer1">
    <path
       sodipodi:type="star"
       style="fill:#e52d4c;fill-opacity:1;stroke:none;stroke-width:8;stroke-linecap:round;stroke-linejoin:round;stroke-miterlimit:16;stop-color:#000000"
       id="path6355"
       inkscape:flatsided="false"
       sodipodi:sides="10"
       sodipodi:cx="150"
       sodipodi:cy="150"
       sodipodi:r1="150"
       sodipodi:r2="112.5"
       sodipodi:arg1="1.5707963"
       sodipodi:arg2="1.8849556"
       inkscape:rounded="0"
       inkscape:randomized="0"
       d="M 150,300 115.23559,256.99386 61.832215,271.35255 58.985588,216.12584 7.3415238,196.35255 37.5,150 7.3415213,103.64745 58.985589,83.874158 61.832209,28.647453 115.23559,43.006142 150,0 184.76441,43.006142 238.16778,28.647448 241.01441,83.87416 292.65848,103.64745 262.5,150 l 30.15848,46.35255 -51.64407,19.77329 -2.84662,55.22671 -53.40338,-14.35869 z" />
    <path
       sodipodi:type="star"
       style="fill:#b2233b;fill-opacity:1;stroke:none;stroke-width:12;stroke-linecap:round;stroke-linejoin:round;stroke-miterlimit:16;stop-color:#000000"
       id="path6411"
       inkscape:flatsided="false"
       sodipodi:sides="10"
       sodipodi:cx="150"
       sodipodi:cy="150"
       sodipodi:r1="150"
       sodipodi:r2="112.5"
       sodipodi:arg1="1.5707963"
       sodipodi:arg2="1.8849556"
       inkscape:rounded="0"
       inkscape:randomized="0"
       d="M 150,300 115.23559,256.99386 61.832215,271.35255 58.985588,216.12584 7.3415238,196.35255 37.5,150 7.3415213,103.64745 58.985589,83.874158 61.832209,28.647453 115.23559,43.006142 150,0 184.76441,43.006142 238.16778,28.647448 241.01441,83.87416 292.65848,103.64745 262.5,150 l 30.15848,46.35255 -51.64407,19.77329 -2.84662,55.22671 -53.40338,-14.35869 z"
       transform="matrix(0.66666667,0,0,0.66666667,50,50)" />
  </g>
</svg>
