<?xml version="1.0" encoding="UTF-8" standalone="no"?>
<!-- Created with Inkscape (http://www.inkscape.org/) -->

<svg
   width="80"
   height="80"
   viewBox="0 0 16 16"
   version="1.1"
   id="SVGRoot"
   sodipodi:docname="burst.svg"
   inkscape:version="1.2-beta (1b65182, 2022-04-05)"
   xml:space="preserve"
   xmlns:inkscape="http://www.inkscape.org/namespaces/inkscape"
   xmlns:sodipodi="http://sodipodi.sourceforge.net/DTD/sodipodi-0.dtd"
   xmlns="http://www.w3.org/2000/svg"
   xmlns:svg="http://www.w3.org/2000/svg"><sodipodi:namedview
     id="namedview1341"
     pagecolor="#505050"
     bordercolor="#ffffff"
     borderopacity="1"
     inkscape:pageshadow="0"
     inkscape:pageopacity="0"
     inkscape:pagecheckerboard="1"
     inkscape:deskcolor="#505050"
     inkscape:document-units="px"
     showgrid="false"
     inkscape:zoom="4"
     inkscape:cx="-13"
     inkscape:cy="12.375"
     inkscape:window-width="1920"
     inkscape:window-height="1042"
     inkscape:window-x="0"
     inkscape:window-y="0"
     inkscape:window-maximized="1"
     inkscape:current-layer="g44884"><inkscape:grid
       type="xygrid"
       id="grid1464"
       empspacing="1"
       spacingx="1"
       spacingy="1"
       originx="0"
       originy="0" /></sodipodi:namedview><defs
     id="defs1336" /><g
     inkscape:label="Layer 1"
     inkscape:groupmode="layer"
     id="layer1"><path
       sodipodi:type="star"
       style="font-variation-settings:normal;vector-effect:none;fill:#ae2334;fill-opacity:1;stroke:none;stroke-width:0.497934;stroke-linecap:round;stroke-linejoin:round;stroke-miterlimit:4;stroke-dasharray:none;stroke-dashoffset:0;stroke-opacity:1;-inkscape-stroke:none;stop-color:#000000"
       id="path8828"
       inkscape:flatsided="false"
       sodipodi:sides="7"
       sodipodi:cx="8"
       sodipodi:cy="8"
       sodipodi:r1="6.4753151"
       sodipodi:r2="4.9859924"
       sodipodi:arg1="1.0471976"
       sodipodi:arg2="1.4959966"
       inkscape:rounded="0"
       inkscape:randomized="0"
       d="M 11.237657,13.607788 8.3726032,12.972051 5.6343015,14.027701 4.3450086,11.391336 1.8123649,9.9086323 3.0696971,7.2568759 2.6498438,4.3523249 5.5070042,3.6820036 7.5160994,1.5427912 9.821588,3.3586707 l 2.925154,0.2369967 0.01774,2.934686 1.638512,2.4347425 -2.283371,1.8436141 z"
       transform="matrix(0.60249008,0,0,0.60249008,-1.0919319,7.5484495)" /><path
       sodipodi:type="star"
       style="font-variation-settings:normal;vector-effect:none;fill:#e83b3b;fill-opacity:1;stroke:none;stroke-width:0.612583;stroke-linecap:round;stroke-linejoin:round;stroke-miterlimit:4;stroke-dasharray:none;stroke-dashoffset:0;stroke-opacity:1;-inkscape-stroke:none;stop-color:#000000"
       id="path8834"
       inkscape:flatsided="false"
       sodipodi:sides="7"
       sodipodi:cx="8"
       sodipodi:cy="8"
       sodipodi:r1="6.4753151"
       sodipodi:r2="4.9859924"
       sodipodi:arg1="1.0471976"
       sodipodi:arg2="1.4959966"
       inkscape:rounded="0"
       inkscape:randomized="0"
       d="M 11.237657,13.607788 8.3726032,12.972051 5.6343015,14.027701 4.3450086,11.391336 1.8123649,9.9086323 3.0696971,7.2568759 2.6498438,4.3523249 5.5070042,3.6820036 7.5160994,1.5427912 9.821588,3.3586707 l 2.925154,0.2369967 0.01774,2.934686 1.638512,2.4347425 -2.283371,1.8436141 z"
       transform="matrix(0.48973045,0,0,0.48973045,-0.17771308,8.426311)" /><g
       id="g44884"
       transform="translate(-0.01807689,-2.2464209)"><g
         id="g51644"
         transform="matrix(1.0225272,-0.59035636,0.59035636,1.0225272,-7.4959918,4.3390642)"><path
           style="fill:#e6904e;stroke:none;stroke-width:0.2px;stroke-linecap:square;stroke-linejoin:miter;stroke-opacity:1"
           d="M 4.5263808,8.3435238 3.920545,7.6775458 4.3073172,6.0680168 5.201399,5.4210686 5.065663,6.9223958 5.2338972,7.7403408 Z"
           id="path25996" /><path
           style="fill:#cd683d;stroke:none;stroke-width:0.2px;stroke-linecap:square;stroke-linejoin:miter;stroke-opacity:1"
           d="M 5.2338972,7.7403408 5.2003017,7.5770018 4.6342681,7.6067898 4.3301035,7.2636418 4.3073172,6.0680168 3.9205468,7.6775458 4.5263826,8.3435238 Z"
           id="path32534"
           sodipodi:nodetypes="cccccccc" /><path
           style="fill:#fbb954;stroke:none;stroke-width:0.2px;stroke-linecap:butt;stroke-linejoin:miter;stroke-opacity:1"
           d="M 4.3992887,6.0014672 4.8338443,6.0984842 5.065663,6.9223958 5.201399,5.4210685 Z"
           id="path41248"
           sodipodi:nodetypes="ccccc" /><path
           style="fill:none;stroke:#9e4539;stroke-width:0.2px;stroke-linecap:square;stroke-linejoin:miter;stroke-opacity:1"
           d="M 4.5263808,8.3435238 3.920545,7.6775458 4.3073172,6.0680168 5.201399,5.4210686 5.065663,6.9223958 5.2338972,7.7403408 Z"
           id="path31080" /></g><g
         id="g51654"
         transform="matrix(1.5258709,0,0,1.5258709,-2.6852693,-3.8851573)"><path
           style="fill:#e6904e;stroke:none;stroke-width:0.2px;stroke-linecap:square;stroke-linejoin:miter;stroke-opacity:1"
           d="M 4.5263808,8.3435238 3.920545,7.6775458 4.3073172,6.0680168 5.201399,5.4210686 5.065663,6.9223958 5.2338972,7.7403408 Z"
           id="path51646" /><path
           style="fill:#cd683d;stroke:none;stroke-width:0.2px;stroke-linecap:square;stroke-linejoin:miter;stroke-opacity:1"
           d="M 5.2338972,7.7403408 5.2003017,7.5770018 4.6342681,7.6067898 4.3301035,7.2636418 4.3073172,6.0680168 3.9205468,7.6775458 4.5263826,8.3435238 Z"
           id="path51648"
           sodipodi:nodetypes="cccccccc" /><path
           style="fill:#fbb954;stroke:none;stroke-width:0.2px;stroke-linecap:butt;stroke-linejoin:miter;stroke-opacity:1"
           d="M 4.3992887,6.0014672 4.8338443,6.0984842 5.065663,6.9223958 5.201399,5.4210685 Z"
           id="path51650"
           sodipodi:nodetypes="ccccc" /><path
           style="fill:none;stroke:#9e4539;stroke-width:0.2px;stroke-linecap:square;stroke-linejoin:miter;stroke-opacity:1"
           d="M 4.5263808,8.3435238 3.920545,7.6775458 4.3073172,6.0680168 5.201399,5.4210686 5.065663,6.9223958 5.2338972,7.7403408 Z"
           id="path51652" /></g><g
         id="g51664"
         transform="matrix(1.5822185,0.9134943,-0.9134943,1.5822185,7.3717843,-7.9330632)"><path
           style="fill:#e6904e;stroke:none;stroke-width:0.2px;stroke-linecap:square;stroke-linejoin:miter;stroke-opacity:1"
           d="M 4.5263808,8.3435238 3.920545,7.6775458 4.3073172,6.0680168 5.201399,5.4210686 5.065663,6.9223958 5.2338972,7.7403408 Z"
           id="path51656" /><path
           style="fill:#cd683d;stroke:none;stroke-width:0.2px;stroke-linecap:square;stroke-linejoin:miter;stroke-opacity:1"
           d="M 5.2338972,7.7403408 5.2003017,7.5770018 4.6342681,7.6067898 4.3301035,7.2636418 4.3073172,6.0680168 3.9205468,7.6775458 4.5263826,8.3435238 Z"
           id="path51658"
           sodipodi:nodetypes="cccccccc" /><path
           style="fill:#fbb954;stroke:none;stroke-width:0.2px;stroke-linecap:butt;stroke-linejoin:miter;stroke-opacity:1"
           d="M 4.3992887,6.0014672 4.8338443,6.0984842 5.065663,6.9223958 5.201399,5.4210685 Z"
           id="path51660"
           sodipodi:nodetypes="ccccc" /><path
           style="fill:none;stroke:#9e4539;stroke-width:0.2px;stroke-linecap:square;stroke-linejoin:miter;stroke-opacity:1"
           d="M 4.5263808,8.3435238 3.920545,7.6775458 4.3073172,6.0680168 5.201399,5.4210686 5.065663,6.9223958 5.2338972,7.7403408 Z"
           id="path51662" /></g><g
         id="g52410"
         transform="matrix(0.76293545,1.321443,-1.321443,0.76293545,15.869621,-0.843361)"><path
           style="fill:#e6904e;stroke:none;stroke-width:0.2px;stroke-linecap:square;stroke-linejoin:miter;stroke-opacity:1"
           d="M 4.5263808,8.3435238 3.920545,7.6775458 4.3073172,6.0680168 5.201399,5.4210686 5.065663,6.9223958 5.2338972,7.7403408 Z"
           id="path52402" /><path
           style="fill:#cd683d;stroke:none;stroke-width:0.2px;stroke-linecap:square;stroke-linejoin:miter;stroke-opacity:1"
           d="M 5.2338972,7.7403408 5.2003017,7.5770018 4.6342681,7.6067898 4.3301035,7.2636418 4.3073172,6.0680168 3.9205468,7.6775458 4.5263826,8.3435238 Z"
           id="path52404"
           sodipodi:nodetypes="cccccccc" /><path
           style="fill:#fbb954;stroke:none;stroke-width:0.2px;stroke-linecap:butt;stroke-linejoin:miter;stroke-opacity:1"
           d="M 4.3992887,6.0014672 4.8338443,6.0984842 5.065663,6.9223958 5.201399,5.4210685 Z"
           id="path52406"
           sodipodi:nodetypes="ccccc" /><path
           style="fill:none;stroke:#9e4539;stroke-width:0.2px;stroke-linecap:square;stroke-linejoin:miter;stroke-opacity:1"
           d="M 4.5263808,8.3435238 3.920545,7.6775458 4.3073172,6.0680168 5.201399,5.4210686 5.065663,6.9223958 5.2338972,7.7403408 Z"
           id="path52408" /></g><g
         id="g52420"
         transform="matrix(0,1.1807127,-1.1807127,0,18.418933,9.1844112)"><path
           style="fill:#e6904e;stroke:none;stroke-width:0.2px;stroke-linecap:square;stroke-linejoin:miter;stroke-opacity:1"
           d="M 4.5263808,8.3435238 3.920545,7.6775458 4.3073172,6.0680168 5.201399,5.4210686 5.065663,6.9223958 5.2338972,7.7403408 Z"
           id="path52412" /><path
           style="fill:#cd683d;stroke:none;stroke-width:0.2px;stroke-linecap:square;stroke-linejoin:miter;stroke-opacity:1"
           d="M 5.2338972,7.7403408 5.2003017,7.5770018 4.6342681,7.6067898 4.3301035,7.2636418 4.3073172,6.0680168 3.9205468,7.6775458 4.5263826,8.3435238 Z"
           id="path52414"
           sodipodi:nodetypes="cccccccc" /><path
           style="fill:#fbb954;stroke:none;stroke-width:0.2px;stroke-linecap:butt;stroke-linejoin:miter;stroke-opacity:1"
           d="M 4.3992887,6.0014672 4.8338443,6.0984842 5.065663,6.9223958 5.201399,5.4210685 Z"
           id="path52416"
           sodipodi:nodetypes="ccccc" /><path
           style="fill:none;stroke:#9e4539;stroke-width:0.2px;stroke-linecap:square;stroke-linejoin:miter;stroke-opacity:1"
           d="M 4.5263808,8.3435238 3.920545,7.6775458 4.3073172,6.0680168 5.201399,5.4210686 5.065663,6.9223958 5.2338972,7.7403408 Z"
           id="path52418" /></g></g><path
       sodipodi:type="star"
       style="font-variation-settings:normal;vector-effect:none;fill:#fb6b1d;fill-opacity:1;stroke:none;stroke-width:0.612583;stroke-linecap:round;stroke-linejoin:round;stroke-miterlimit:4;stroke-dasharray:none;stroke-dashoffset:0;stroke-opacity:1;-inkscape-stroke:none;stop-color:#000000"
       id="path51638"
       inkscape:flatsided="false"
       sodipodi:sides="7"
       sodipodi:cx="8"
       sodipodi:cy="8"
       sodipodi:r1="6.4753151"
       sodipodi:r2="4.9859924"
       sodipodi:arg1="1.0471976"
       sodipodi:arg2="1.4959966"
       inkscape:rounded="0"
       inkscape:randomized="0"
       d="M 11.237657,13.607788 8.3726032,12.972051 5.6343015,14.027701 4.3450086,11.391336 1.8123649,9.9086323 3.0696971,7.2568759 2.6498438,4.3523249 5.5070042,3.6820036 7.5160994,1.5427912 9.821588,3.3586707 l 2.925154,0.2369967 0.01774,2.934686 1.638512,2.4347425 -2.283371,1.8436141 z"
       transform="matrix(0.35732183,0,0,0.35732183,0.89581337,9.4571447)" /></g></svg>
