<?xml version="1.0" encoding="UTF-8" standalone="no"?>
<!-- Created with Inkscape (http://www.inkscape.org/) -->

<svg
   width="640"
   height="320"
   viewBox="0 0 169.33333 84.666666"
   version="1.1"
   id="svg5"
   inkscape:version="1.2-beta (1b65182, 2022-04-05)"
   sodipodi:docname="sand.svg"
   xml:space="preserve"
   inkscape:export-filename="sand.png"
   inkscape:export-xdpi="96"
   inkscape:export-ydpi="96"
   xmlns:inkscape="http://www.inkscape.org/namespaces/inkscape"
   xmlns:sodipodi="http://sodipodi.sourceforge.net/DTD/sodipodi-0.dtd"
   xmlns="http://www.w3.org/2000/svg"
   xmlns:svg="http://www.w3.org/2000/svg"><sodipodi:namedview
     id="namedview7"
     pagecolor="#505050"
     bordercolor="#ffffff"
     borderopacity="1"
     inkscape:pageshadow="0"
     inkscape:pageopacity="0"
     inkscape:pagecheckerboard="1"
     inkscape:deskcolor="#505050"
     inkscape:document-units="px"
     showgrid="true"
     inkscape:zoom="1"
     inkscape:cx="140"
     inkscape:cy="53.5"
     inkscape:window-width="1920"
     inkscape:window-height="1042"
     inkscape:window-x="0"
     inkscape:window-y="0"
     inkscape:window-maximized="1"
     inkscape:current-layer="layer1"><inkscape:grid
       type="xygrid"
       id="grid687"
       spacingx="42.333333"
       spacingy="42.333333"
       empspacing="1" /></sodipodi:namedview><defs
     id="defs2" /><g
     inkscape:label="Layer 1"
     inkscape:groupmode="layer"
     id="layer1"><path
       id="rect741"
       style="opacity:1;fill:#cd683d;stroke-width:0.529167;stroke-linecap:round;stroke-linejoin:round;stop-color:#000000"
       d="M 0,0 H 169.33333 V 42.333333 H 127 v 42.333333 l -127,-2e-6 z"
       sodipodi:nodetypes="ccccccc" /><path
       id="path1059"
       style="opacity:1;fill:#e6904e;stroke-width:0.529167;stroke-linecap:round;stroke-linejoin:round;stop-color:#000000"
       d="m 39.391687,20.991363 c 1.41938,18.634486 -11.695616,6.76479 -17.111526,6.447326 C 16.864251,27.121225 6.4531889,29.97402 4.6020419,21.227186 2.7508949,12.480352 8.2027869,7.0058283 16.986162,5.4116473 25.769538,3.8174663 37.972306,2.3568764 39.391687,20.991363 Z"
       sodipodi:nodetypes="zzzzz" /><path
       id="path1265"
       style="opacity:1;fill:#e6904e;stroke-width:0.529167;stroke-linecap:round;stroke-linejoin:round;stop-color:#000000"
       d="m 47.505462,19.326442 c 9.542998,-7.657586 5.934241,4.848366 15.679161,2.665897 9.74492,-2.182469 12.928945,-0.697158 16.535867,6.001254 3.606921,6.698413 -0.867033,13.238712 -13.540799,12.120572 C 53.505924,38.996025 37.962463,26.984028 47.505462,19.326442 Z"
       sodipodi:nodetypes="zzzzz" /><path
       id="path1321"
       style="opacity:1;fill:#e6904e;stroke-width:0.288966;stroke-linecap:round;stroke-linejoin:round;stop-color:#000000"
       d="m 82.150654,10.846897 c -0.634283,7.269265 -5.32754,2.113659 -9.533186,2.505308 -4.205646,0.391649 -8.91443,1.128511 -11.164334,-2.824226 -2.249904,-3.9527378 2.588813,-6.7091946 7.86679,-7.3621951 5.277977,-0.6530005 13.465014,0.4118495 12.83073,7.6811131 z"
       sodipodi:nodetypes="zzzzz" /><path
       id="path1323"
       style="opacity:1;fill:#e6904e;stroke-width:0.207028;stroke-linecap:round;stroke-linejoin:round;stop-color:#000000"
       d="m 4.1024339,33.960172 c 0.4544287,-5.208027 3.8168884,-1.51432 6.8300011,-1.794915 3.013114,-0.280595 6.386698,-0.808516 7.99863,2.023402 1.611932,2.831919 -1.854741,4.806768 -5.636121,5.274607 -3.7813794,0.467839 -9.6469396,-0.295067 -9.1925101,-5.503094 z"
       sodipodi:nodetypes="zzzzz" /><path
       id="path1325"
       style="opacity:1;fill:#e6904e;stroke-width:0.529167;stroke-linecap:round;stroke-linejoin:round;stop-color:#000000"
       d="m 124.47599,26.859265 c 0.53451,12.099052 -13.41061,11.747554 -21.36763,11.747557 -7.957027,2e-6 -12.879274,-8.626303 -12.879274,-17.689649 0,-9.063345 7.139618,-16.6335102 15.096644,-16.633508 7.95702,2.2e-6 18.61575,10.476548 19.15026,22.5756 z"
       sodipodi:nodetypes="zzzzz" /><path
       id="path53975"
       style="opacity:1;fill:#e6904e;stroke-width:0.529167;stroke-linecap:round;stroke-linejoin:round;stop-color:#000000"
       d="m 146.24338,13.492925 c 0.4603,5.519413 -8.6614,6.563602 -12.33989,6.34113 -3.67849,-0.222472 -4.44485,-6.532543 -3.67808,-9.8384715 0.76677,-3.3059284 1.49782,-8.1025621 8.52774,-7.4766328 7.02992,0.6259293 7.02993,5.4545614 7.49023,10.9739743 z"
       sodipodi:nodetypes="zzzzz" /><path
       id="circle54081"
       style="opacity:1;fill:#e6904e;stroke-width:0.529167;stroke-linecap:round;stroke-linejoin:round;stop-color:#000000"
       d="m 159.98519,34.131016 c 0,4.091512 -11.99575,5.029273 -16.08726,5.02927 -4.09151,-3e-6 -11.88784,-5.306187 -11.88784,-9.397695 0,-4.091508 1.89325,-9.068326 14.44793,-5.498249 12.55468,3.570078 13.52717,5.775162 13.52717,9.866674 z"
       sodipodi:nodetypes="zzzzz" /><path
       id="circle54083"
       style="opacity:1;fill:#e6904e;stroke-width:0.529167;stroke-linecap:round;stroke-linejoin:round;stop-color:#000000"
       d="m 166.20284,14.037216 c 1.25349,7.308893 -0.5745,12.210847 -4.68816,12.210847 -4.11366,0 -10.94162,-6.0002 -11.2458,-13.223227 -0.30418,-7.2230266 0.21507,-9.1856345 6.63861,-9.1856345 6.42354,0 8.04186,2.8891216 9.29535,10.1980145 z"
       sodipodi:nodetypes="zzzzz" /><path
       style="fill:#625565;stroke:none;stroke-width:0.264583px;stroke-linecap:round;stroke-linejoin:round;stroke-opacity:1"
       d="m 9.9255483,66.538961 5.9172557,6.4418 11.840021,0.578326 7.305891,-6.587283 -9.278441,-12.186005 -12.601148,-3.293041 -4.5084816,7.346698 z"
       id="path54089"
       sodipodi:nodetypes="cccccccc" /><path
       style="fill:#3e3546;stroke:none;stroke-width:0.264583px;stroke-linecap:round;stroke-linejoin:round;stroke-opacity:1"
       d="m 8.8434177,60.250296 7.9339903,8.11786 13.051839,3.255631 -2.146422,1.9353 -11.840021,-0.578326 -5.9172557,-6.4418 z"
       id="path54819"
       sodipodi:nodetypes="ccccccc" /><path
       style="fill:#7f708a;stroke:none;stroke-width:0.264583px;stroke-linecap:round;stroke-linejoin:round;stroke-opacity:1"
       d="m 10.854886,55.166107 13.910303,5.37186 6.570582,9.727479 3.652945,-3.293642 -9.278441,-12.186005 -12.601148,-3.293041 z"
       id="path55547"
       sodipodi:nodetypes="ccccccc" /><path
       style="fill:none;stroke:#2e222f;stroke-width:2.11667;stroke-linecap:round;stroke-linejoin:round;stroke-dasharray:none;stroke-opacity:1"
       d="m 9.9255483,66.538961 5.9172557,6.4418 11.840021,0.578326 7.305891,-6.587283 -9.278441,-12.186005 -12.601148,-3.293041 -4.5084816,7.346698 z"
       id="path54091"
       sodipodi:nodetypes="cccccccc" /><g
       id="g64507"
       style="fill:#9e4539;fill-opacity:1;opacity:0.4"><path
         id="path84-6"
         style="fill:#9e4539;fill-opacity:1;fill-rule:nonzero;stroke:none;stroke-width:0.0439768"
         d="m 53.859365,51.05701 c -1.067762,0.954703 -2.062976,2.008526 -2.875101,3.211854 0.585651,0.984367 1.186486,1.905108 1.862202,2.803908 -0.28158,0.527647 -0.607968,1.027943 -0.833648,1.587376 -0.237168,0.554386 -0.490465,1.099985 -0.657756,1.686661 -1.033735,-0.07618 -2.094913,-0.09787 -3.149142,-0.05083 -0.351798,1.450709 -0.603717,2.944899 -0.635076,4.476499 0.971159,0.538545 1.935637,1.01289 2.92058,1.424099 l 0.01623,-0.0091 3.189255,5.69091 0.404972,0.722634 0.368846,0.658169 c 0.013,-0.0071 0.02624,-0.01403 0.03978,-0.01992 l 4.569092,-2.011439 c 0.239366,-0.105337 0.519987,-0.02234 0.663323,0.196358 l 1.20587,1.838869 3.932842,-1.849769 -0.729258,-1.91226 c -0.09455,-0.247925 0.0067,-0.527396 0.238292,-0.657205 l 4.573825,-2.563227 c 0.231512,-0.129742 0.52284,-0.07026 0.684948,0.139811 l 1.250384,1.620215 3.630692,-2.388928 -0.938995,-1.988429 c -0.111598,-0.236486 -0.03596,-0.518981 0.178771,-0.668278 l 4.099356,-2.846464 c 0.01213,-0.0084 0.02447,-0.01585 0.03731,-0.02328 l -0.316298,-0.564403 0.0013,-0.0019 -3.646269,-6.506407 0.01623,-0.0091 c 0.163518,-1.054821 0.262024,-2.124875 0.309859,-3.234475 -1.322503,-0.77288 -2.728707,-1.337839 -4.149724,-1.795041 -0.590191,0.874511 -1.126118,1.790645 -1.600747,2.712131 -0.587607,-0.16362 -1.184468,-0.23219 -1.781725,-0.318953 -0.0067,-0.0011 -0.01336,-0.0019 -0.02004,-0.003 l -0.501838,1.122416 0.59009,0.507524 c 0,0 -2.000793,3.532255 -2.048494,3.558987 -0.0477,0.02673 1.081375,-3.329186 1.081375,-3.329186 l -0.475135,-0.625852 0.163542,-1.324395 c -0.192889,-0.0062 -0.385893,-0.01251 -0.578613,-0.02406 -0.414262,-1.045321 -0.885729,-2.038562 -1.419515,-3.051995 -1.450423,0.06463 -2.86851,0.363252 -4.240789,0.775978 -0.02832,1.091902 0.02292,2.228137 0.120685,3.312488 -0.50324,0.180985 -0.981467,0.411539 -1.447458,0.665448 l -5.06e-4,-9.02e-4 c -0.0032,0.0018 -0.0058,0.0044 -0.0085,0.006 -0.0029,0.0016 -0.0062,0.0023 -0.0091,0.0039 l 5.05e-4,9.02e-4 c -0.460664,0.265383 -0.906888,0.552915 -1.324064,0.887747 -0.873624,-0.64955 -1.815543,-1.286639 -2.762378,-1.832052 z m 3.420237,7.722466 c 0.02386,-0.02057 -0.43579,3.316305 -0.43579,3.316305 l 0.363718,0.235714 0.0168,0.645168 c 1.202226,-0.189773 2.448447,0.370217 3.078193,1.493937 0.808926,1.44345 0.294847,3.268199 -1.148123,4.076857 -1.442251,0.808255 -3.267731,0.294623 -4.076658,-1.148827 -0.808389,-1.442491 -0.293118,-3.266798 1.149133,-4.075053 0.178324,-0.09993 0.362648,-0.179199 0.549981,-0.239499 L 56.90849,62.49553 56.516877,62.276633 c 0,0 0.738881,-3.476569 0.76273,-3.497156 z m 11.238351,-2.343971 c 1.442134,-0.808189 3.266807,-0.295218 4.075197,1.147275 0.808927,1.443452 0.294462,3.268415 -1.147672,4.076604 -1.443212,0.808793 -3.268182,0.294877 -4.077109,-1.148573 -0.808391,-1.442493 -0.293628,-3.266513 1.149584,-4.075306 z" /><path
         id="path88-5"
         style="fill:#9e4539;fill-opacity:1;fill-rule:nonzero;stroke:none;stroke-width:0.0439768"
         inkscape:transform-center-x="-12.746532"
         inkscape:transform-center-y="-2.7481568"
         d="m 54.982656,74.184314 c 0.181186,0.444771 0.383521,0.930705 0.422617,1.027891 1.761289,4.378364 8.161488,4.248372 15.071854,1.496648 l 0.0089,-0.0032 0.0082,-0.0034 c 6.890892,-2.800127 11.596708,-7.137888 9.835419,-11.516251 -0.03982,-0.09897 -0.22943,-0.587798 -0.40673,-1.034426 l -3.983237,2.066388 0.680226,2.103828 c 0.082,0.253513 -0.035,0.528591 -0.274474,0.645493 l -3.052442,1.488483 c 0.729906,0.734253 2.005081,2.019691 2.008103,2.042091 0.0034,0.02551 -1.627534,-1.386646 -2.248746,-1.925003 l -1.477018,0.720518 c -0.01162,0.0057 -0.0233,0.01075 -0.03513,0.01554 -0.244051,0.09817 -0.526647,0.004 -0.661278,-0.226532 l -1.050014,-1.796481 -4.007006,1.611728 0.486232,2.022982 c 0.06557,0.272258 -0.08927,0.549614 -0.355725,0.634753 l -5.052123,1.625185 c -0.253716,0.0815 -0.528703,-0.0362 -0.645098,-0.275881 l -0.966047,-1.988077 z" /></g></g></svg>
